<mxfile host="65bd71144e">
    <diagram id="hntutuKbiYIC6DhCWnxu" name="Page-1">
        <mxGraphModel dx="1769" dy="1011" grid="1" gridSize="10" guides="1" tooltips="1" connect="1" arrows="1" fold="1" page="1" pageScale="1" pageWidth="850" pageHeight="1100" math="0" shadow="0">
            <root>
                <mxCell id="0"/>
                <mxCell id="1" parent="0"/>
                <mxCell id="5" value="" style="rounded=0;whiteSpace=wrap;html=1;fillColor=#000000;" parent="1" vertex="1">
                    <mxGeometry x="150" y="130" width="660" height="580" as="geometry"/>
                </mxCell>
                <mxCell id="6" value="&lt;h1&gt;&lt;font style=&quot;color: rgb(255, 255, 255); font-size: 39px;&quot;&gt;PromptIn&lt;/font&gt;&lt;/h1&gt;" style="text;html=1;align=center;verticalAlign=middle;whiteSpace=wrap;rounded=0;" parent="1" vertex="1">
                    <mxGeometry x="365" y="170" width="230" height="50" as="geometry"/>
                </mxCell>
                <mxCell id="7" value="Search Prompt ..." style="rounded=0;whiteSpace=wrap;html=1;" parent="1" vertex="1">
                    <mxGeometry x="260" y="310" width="270" height="40" as="geometry"/>
                </mxCell>
                <mxCell id="8" value="Add a new prompt" style="rounded=0;whiteSpace=wrap;html=1;shadow=0;" vertex="1" parent="1">
                    <mxGeometry x="260" y="253.5" width="270" height="40" as="geometry"/>
                </mxCell>
                <mxCell id="9" value="Add" style="rounded=1;fillColor=#0057D8;strokeColor=none;html=1;whiteSpace=wrap;fontColor=#ffffff;align=center;verticalAlign=middle;fontStyle=0;fontSize=12;sketch=0;" vertex="1" parent="1">
                    <mxGeometry x="560" y="250" width="90" height="40" as="geometry"/>
                </mxCell>
                <mxCell id="10" value="" style="rounded=0;whiteSpace=wrap;html=1;" vertex="1" parent="1">
                    <mxGeometry x="290" y="410" width="450" height="40" as="geometry"/>
                </mxCell>
                <mxCell id="11" value="&lt;h2&gt;&lt;font style=&quot;color: rgb(255, 255, 255);&quot;&gt;Work&lt;/font&gt;&lt;/h2&gt;" style="text;html=1;align=center;verticalAlign=middle;whiteSpace=wrap;rounded=0;" vertex="1" parent="1">
                    <mxGeometry x="260" y="380" width="60" height="30" as="geometry"/>
                </mxCell>
                <mxCell id="12" value="&lt;h2&gt;&lt;font style=&quot;color: rgb(255, 255, 255);&quot;&gt;Personal&lt;/font&gt;&lt;/h2&gt;" style="text;html=1;align=center;verticalAlign=middle;whiteSpace=wrap;rounded=0;" vertex="1" parent="1">
                    <mxGeometry x="260" y="500" width="90" height="30" as="geometry"/>
                </mxCell>
                <mxCell id="14" value="&lt;h2&gt;Prompt&lt;/h2&gt;" style="text;html=1;align=center;verticalAlign=middle;whiteSpace=wrap;rounded=0;" vertex="1" parent="1">
                    <mxGeometry x="290" y="415" width="90" height="30" as="geometry"/>
                </mxCell>
                <mxCell id="15" value="Edit" style="rounded=1;fillColor=#FF8800;strokeColor=none;html=1;whiteSpace=wrap;fontColor=#ffffff;align=center;verticalAlign=middle;fontStyle=0;fontSize=12;sketch=0;" vertex="1" parent="1">
                    <mxGeometry x="576" y="416.75" width="70" height="26.5" as="geometry"/>
                </mxCell>
                <mxCell id="16" value="Use" style="rounded=1;fillColor=#04AA6D;strokeColor=none;html=1;whiteSpace=wrap;fontColor=#ffffff;align=center;verticalAlign=middle;fontStyle=0;fontSize=12;sketch=0;" vertex="1" parent="1">
                    <mxGeometry x="490" y="416.75" width="70" height="26.5" as="geometry"/>
                </mxCell>
                <mxCell id="17" value="Delete" style="rounded=1;fillColor=#FF0000;strokeColor=none;html=1;whiteSpace=wrap;fontColor=#ffffff;align=center;verticalAlign=middle;fontStyle=0;fontSize=12;sketch=0;" vertex="1" parent="1">
                    <mxGeometry x="660" y="416.75" width="70" height="26.5" as="geometry"/>
                </mxCell>
            </root>
        </mxGraphModel>
    </diagram>
</mxfile>